<?xml version="1.0" standalone="no"?>
<!DOCTYPE svg PUBLIC "-//W3C//DTD SVG 20010904//EN"
 "http://www.w3.org/TR/2001/REC-SVG-20010904/DTD/svg10.dtd">
<svg version="1.0" xmlns="http://www.w3.org/2000/svg"
 width="804.000000pt" height="237.000000pt" viewBox="0 0 804.000000 237.000000"
 preserveAspectRatio="xMidYMid meet">

<g transform="translate(0.000000,237.000000) scale(0.100000,-0.100000)"
fill="#000000" stroke="none">
<path d="M0 1185 l0 -1185 4020 0 4020 0 0 1185 0 1185 -4020 0 -4020 0 0
-1185z m2738 688 c5 -10 53 -165 108 -345 54 -180 101 -328 104 -328 3 0 53
153 110 341 61 199 110 343 118 346 39 16 31 -23 -85 -398 l-119 -384 -43 -3
c-24 -2 -48 1 -52 5 -14 14 -240 756 -235 770 8 20 84 17 94 -4z m840 -380 l2
-393 -45 0 -45 0 0 388 c0 214 3 392 7 396 4 4 23 6 43 4 l35 -3 3 -392z m570
376 c99 -48 134 -187 67 -267 l-24 -28 42 -11 c132 -36 204 -170 166 -307 -14
-51 -91 -128 -145 -144 -26 -7 -108 -12 -218 -12 l-176 0 0 395 0 395 122 0
c104 0 128 -3 166 -21z m1007 1 c0 -13 -29 -15 -187 -18 l-188 -2 0 -165 0
-165 139 0 c109 0 141 -3 151 -15 24 -29 0 -35 -146 -35 l-144 0 0 -165 0
-165 188 -2 c158 -3 187 -5 187 -18 0 -13 -33 -15 -235 -15 l-235 0 -3 380
c-1 209 0 386 3 393 3 10 56 12 237 10 199 -3 233 -5 233 -18z m373 -167 l2
-183 180 0 180 0 0 173 c0 189 2 197 56 197 56 0 58 -9 51 -243 -4 -117 -7
-287 -7 -379 l0 -168 -45 0 -45 0 0 113 c0 63 -3 149 -6 191 l-7 76 -176 -2
-176 -3 -5 -185 -5 -185 -47 -3 -48 -3 0 389 c0 214 3 392 7 396 4 4 25 6 48
4 l40 -3 3 -182z m842 -98 c6 -313 8 -326 78 -398 51 -53 88 -70 152 -71 98 0
181 63 217 169 16 44 18 82 15 306 -3 225 -1 257 13 269 33 27 36 -1 33 -291
-3 -274 -4 -286 -26 -327 -30 -55 -90 -115 -144 -143 -59 -30 -160 -37 -226
-15 -65 22 -145 93 -180 160 l-27 51 -3 274 c-2 150 -1 280 2 288 4 10 18 13
48 11 l43 -3 5 -280z m1065 266 c51 -23 91 -70 105 -122 14 -50 6 -92 -25
-140 l-24 -37 45 -11 c52 -13 117 -68 144 -121 60 -117 14 -256 -102 -314 -50
-25 -58 -26 -233 -26 l-182 0 -6 168 c-8 216 -9 600 -2 612 4 6 59 10 123 10
92 0 126 -4 157 -19z m-4369 -1122 c57 -27 69 -42 49 -63 -15 -14 -19 -13 -51
19 -64 65 -153 39 -194 -57 -40 -92 -14 -196 61 -246 44 -31 91 -24 135 19 28
27 36 30 49 19 14 -12 14 -15 -2 -32 -45 -50 -147 -67 -208 -35 -67 35 -115
112 -115 185 0 154 146 255 276 191z m623 -7 c93 -50 94 -191 1 -245 l-31 -18
38 -26 c21 -14 61 -46 88 -72 70 -67 94 -81 137 -81 43 0 57 -14 29 -29 -29
-16 -88 -13 -129 6 -20 10 -72 53 -117 96 -78 77 -124 107 -164 107 -17 0 -20
-8 -23 -57 -3 -55 -4 -58 -30 -61 l-28 -3 0 200 0 201 98 0 c75 0 105 -4 131
-18z m701 8 c0 -6 -42 -10 -105 -10 l-106 0 3 -82 3 -83 63 -3 c82 -4 80 -22
-3 -22 l-66 0 3 -82 3 -83 103 -3 c150 -4 118 -22 -39 -22 l-129 0 0 200 0
200 135 0 c83 0 135 -4 135 -10z m514 -7 c17 -60 108 -360 111 -371 4 -10 -4
-12 -27 -10 -29 3 -33 8 -53 68 l-22 65 -64 0 -64 0 -20 -64 c-12 -36 -26 -66
-33 -69 -7 -2 -12 0 -12 5 -1 4 25 95 57 201 l57 192 33 0 c21 0 33 -6 37 -17z
m746 7 c0 -6 -27 -10 -60 -10 l-60 0 0 -190 0 -190 -30 0 -30 0 -2 188 -3 187
-57 3 c-32 2 -58 7 -58 12 0 6 62 10 150 10 93 0 150 -4 150 -10z m380 -190
l0 -200 -25 0 c-24 0 -25 3 -26 58 -1 31 -3 117 -5 191 -1 74 -1 138 2 143 3
4 16 8 30 8 l24 0 0 -200z m445 34 c27 -91 51 -167 55 -169 4 -2 29 71 57 163
36 118 55 168 66 170 15 3 15 -1 3 -40 -7 -24 -35 -114 -61 -200 l-48 -158
-32 0 -31 0 -57 188 c-31 104 -57 194 -57 200 0 7 13 12 28 12 27 0 29 -3 77
-166z m785 156 c0 -6 -40 -10 -100 -10 l-100 0 0 -85 0 -85 60 0 c33 0 60 -4
60 -10 0 -6 -27 -10 -60 -10 l-61 0 3 -82 3 -83 98 -3 c146 -4 120 -22 -33
-22 l-130 0 0 200 0 200 130 0 c80 0 130 -4 130 -10z"/>
<path d="M3960 1705 l0 -135 38 0 c50 0 102 28 129 69 59 88 -8 201 -121 201
l-46 0 0 -135z"/>
<path d="M3973 1523 c-10 -4 -13 -52 -13 -194 l0 -189 88 0 c103 0 150 12 192
47 77 64 91 174 34 255 -43 61 -86 79 -196 83 -51 1 -99 0 -105 -2z"/>
<path d="M7260 1798 c0 -25 -3 -86 -6 -136 l-7 -92 42 0 c23 0 57 6 75 14 83
35 105 144 43 213 -30 32 -41 37 -90 41 l-57 4 0 -44z"/>
<path d="M7262 1521 c-9 -6 -12 -54 -10 -192 l3 -184 112 0 c108 1 114 2 154
30 84 60 108 168 57 256 -40 68 -87 89 -206 94 -54 2 -103 0 -110 -4z"/>
<path d="M3520 621 l0 -121 39 0 c92 0 148 54 138 132 -8 62 -49 98 -120 105
l-57 6 0 -122z"/>
<path d="M4822 622 c-32 -99 -31 -102 28 -102 33 0 50 4 50 13 0 21 -43 157
-49 157 -4 0 -17 -31 -29 -68z"/>
</g>
</svg>
