<!DOCTYPE svg PUBLIC "-//W3C//DTD SVG 1.1//EN" "http://www.w3.org/Graphics/SVG/1.1/DTD/svg11.dtd">
<!-- Uploaded to: SVG Repo, www.svgrepo.com, Transformed by: SVG Repo Mixer Tools -->
<svg width="800px" height="800px" viewBox="-3.2 -3.2 38.40 38.40" xmlns="http://www.w3.org/2000/svg" fill="#000000">
<g id="SVGRepo_bgCarrier" stroke-width="0">
<path transform="translate(-3.2, -3.2), scale(2.4)" fill="#ffffff" d="M9.166.33a2.25 2.25 0 00-2.332 0l-5.25 3.182A2.25 2.25 0 00.5 5.436v5.128a2.25 2.25 0 001.084 1.924l5.25 3.182a2.25 2.25 0 002.332 0l5.25-3.182a2.25 2.25 0 001.084-1.924V5.436a2.25 2.25 0 00-1.084-1.924L9.166.33z" strokewidth="0"/>
</g>
<g id="SVGRepo_tracerCarrier" stroke-linecap="round" stroke-linejoin="round"/>
<g id="SVGRepo_iconCarrier"> <g fill="none" fill-rule="evenodd"> <circle cx="16" cy="16" r="16" fill="#DE3F6B"/> <path fill="#FFF" fill-rule="nonzero" d="M9.752 11h.904c1.413.134 2.72.821 3.687 1.81 2.009 2.039 3.113 4.916 5.67 6.433 1.848 1.097 4.433.2 5.341-1.654.462-.008.927-.008 1.389-.006-.636 1.883-2.489 3.236-4.515 3.417h-.746c-1.247-.1-2.46-.564-3.403-1.366-1.37-1.123-2.25-2.664-3.315-4.036-.916-1.213-1.85-2.577-3.366-3.128-1.873-.679-4.16.383-4.843 2.187-.6 1.486-.112 3.328 1.23 4.28 1.006.752 2.407 1.033 3.615.595 1.342-.468 2.338-1.532 3.102-2.66.301.417.594.84.884 1.266-1.188 1.447-2.836 2.69-4.796 2.862h-.803C7.317 20.834 5.17 18.804 5 16.406v-.785c.16-2.393 2.28-4.447 4.752-4.621zm11.68 0h.75c2.493.157 4.613 2.228 4.818 4.626v1.23c-2.057.018-4.116.006-6.173.008.002-.36.002-.717 0-1.077 1.626-.004 3.25.007 4.873-.004-.115-.636-.264-1.287-.654-1.826-.95-1.404-2.959-1.978-4.565-1.37-1.28.46-2.244 1.466-2.987 2.54-.286-.397-.57-.8-.845-1.206 1.173-1.468 2.81-2.738 4.783-2.921z"/> </g> </g>
</svg>